<svg width="44" height="52" viewBox="0 0 44 52" fill="none" xmlns="http://www.w3.org/2000/svg">
<path d="M18.3327 49.8333C18.3327 50.408 18.1396 50.9591 17.7958 51.3654C17.452 51.7717 16.9857 52 16.4995 52H3.66655C2.69412 52 1.76152 51.5435 1.07391 50.7308C0.386296 49.9181 0 48.8159 0 47.6667V4.33333C0 3.18406 0.386296 2.08186 1.07391 1.2692C1.76152 0.456546 2.69412 0 3.66655 0H16.4995C16.9857 0 17.452 0.228274 17.7958 0.634602C18.1396 1.04093 18.3327 1.59203 18.3327 2.16667C18.3327 2.7413 18.1396 3.2924 17.7958 3.69873C17.452 4.10506 16.9857 4.33333 16.4995 4.33333H3.66655V47.6667H16.4995C16.9857 47.6667 17.452 47.8949 17.7958 48.3013C18.1396 48.7076 18.3327 49.2587 18.3327 49.8333ZM43.4623 24.4671L34.296 13.6337C33.952 13.2272 33.4854 12.9988 32.9989 12.9988C32.5124 12.9988 32.0459 13.2272 31.7019 13.6337C31.3579 14.0403 31.1646 14.5917 31.1646 15.1667C31.1646 15.7416 31.3579 16.293 31.7019 16.6996L37.7402 23.8333H16.4995C16.0132 23.8333 15.5469 24.0616 15.2031 24.4679C14.8593 24.8743 14.6662 25.4254 14.6662 26C14.6662 26.5746 14.8593 27.1257 15.2031 27.5321C15.5469 27.9384 16.0132 28.1667 16.4995 28.1667H37.7402L31.7019 35.3004C31.3579 35.707 31.1646 36.2584 31.1646 36.8333C31.1646 37.4083 31.3579 37.9597 31.7019 38.3662C32.0459 38.7728 32.5124 39.0012 32.9989 39.0012C33.4854 39.0012 33.952 38.7728 34.296 38.3662L43.4623 27.5329C43.6328 27.3317 43.768 27.0927 43.8603 26.8297C43.9525 26.5667 44 26.2847 44 26C44 25.7153 43.9525 25.4333 43.8603 25.1703C43.768 24.9073 43.6328 24.6683 43.4623 24.4671Z" fill="white"/>
</svg>
