<svg width="98" height="107" viewBox="0 0 98 107" fill="none" xmlns="http://www.w3.org/2000/svg">
<path d="M49 0C39.3087 0 29.8351 3.13772 21.7771 9.01637C13.7191 14.895 7.43862 23.2506 3.72992 33.0264C0.0212309 42.8023 -0.949132 53.5593 0.941543 63.9373C2.83222 74.3153 7.49901 83.8481 14.3518 91.3302C21.2046 98.8123 29.9355 103.908 39.4406 105.972C48.9457 108.036 58.7979 106.977 67.7515 102.928C76.7051 98.8782 84.3578 92.021 89.742 83.223C95.1262 74.425 98 64.0813 98 53.5C97.9863 39.3155 92.8194 25.7163 83.6331 15.6863C74.4468 5.65638 61.9914 0.0149791 49 0ZM23.5954 89.2524C26.3221 84.5962 30.0785 80.7645 34.5183 78.1103C38.958 75.4561 43.9383 74.0648 49 74.0648C54.0617 74.0648 59.042 75.4561 63.4818 78.1103C67.9215 80.7645 71.6779 84.5962 74.4046 89.2524C67.141 95.4202 58.2018 98.7689 49 98.7689C39.7983 98.7689 30.859 95.4202 23.5954 89.2524ZM33.9231 49.3846C33.9231 46.1288 34.8073 42.9462 36.464 40.2391C38.1207 37.532 40.4754 35.4221 43.2303 34.1761C45.9853 32.9302 49.0167 32.6042 51.9414 33.2394C54.866 33.8745 57.5525 35.4424 59.661 37.7445C61.7695 40.0467 63.2055 42.9799 63.7872 46.1731C64.369 49.3663 64.0704 52.6762 62.9293 55.6842C61.7881 58.6921 59.8557 61.2631 57.3763 63.0719C54.8969 64.8807 51.9819 65.8461 49 65.8461C45.0014 65.8461 41.1665 64.1118 38.339 61.0247C35.5115 57.9375 33.9231 53.7505 33.9231 49.3846ZM79.9831 83.5474C75.7793 76.8963 69.8683 71.7508 62.9933 68.7578C66.6862 65.582 69.381 61.2286 70.7029 56.3031C72.0247 51.3775 71.908 46.1247 70.3688 41.275C68.8296 36.4253 65.9445 32.2198 62.1147 29.2434C58.285 26.2669 53.7009 24.6675 49 24.6675C44.2991 24.6675 39.715 26.2669 35.8853 29.2434C32.0555 32.2198 29.1704 36.4253 27.6312 41.275C26.0921 46.1247 25.9753 51.3775 27.2971 56.3031C28.619 61.2286 31.3138 65.582 35.0067 68.7578C28.1318 71.7508 22.2207 76.8963 18.0169 83.5474C12.705 77.0254 9.23309 68.9658 8.01927 60.3392C6.80545 51.7127 7.90149 42.8869 11.1754 34.9247C14.4493 26.9625 19.7615 20.2033 26.4723 15.4612C33.1831 10.719 41.0063 8.19602 49 8.19602C56.9937 8.19602 64.8169 10.719 71.5277 15.4612C78.2385 20.2033 83.5507 26.9625 86.8246 34.9247C90.0985 42.8869 91.1946 51.7127 89.9808 60.3392C88.7669 68.9658 85.295 77.0254 79.9831 83.5474Z" fill="white"/>
</svg>
